<?xml version="1.0" encoding="UTF-8" standalone="no"?>
<!-- Created with Inkscape (http://www.inkscape.org/) -->

<svg width="100mm" height="100mm" viewBox="0 0 100 100" version="1.1" xmlns="http://www.w3.org/2000/svg" xmlns:svg="http://www.w3.org/2000/svg"><path style="fill:#7400f0" d="M 50.000049,0 0,9.9999064 V 90.000191 l 50.000049,9.999909 z m 1.999878,9.9999064 v 6.0001506 h 42.00002 v 67.999984 h -42.00002 v 6.00015 H 100.0001 V 9.9999064 Z M 34.138485,16.789156 c 3.70775,-0.150381 7.479446,1.160153 9.371004,4.5837 l -3.865914,4.194576 4.264856,-1.576132 c -0.543424,5.800685 -5.069304,14.435452 -10.147184,19.71766 -0.995503,3.651005 -2.266262,6.803866 -3.854029,9.387541 -1.383949,1.43205 -2.102622,0.98242 -2.377115,-0.729672 -0.137662,-2.236915 -0.16163,-4.469533 -0.03876,-6.695198 -5.234835,0.724061 -7.779888,-2.471 -11.238074,-3.22461 -1.108902,-0.24022 -2.111836,0.60969 -2.894913,3.024105 L 11.028784,52.06814 C 9.3691472,56.771663 8.0568012,56.281278 8.0325846,50.458936 8.0248246,48.421021 8.0565062,46.418761 8.1757284,44.503227 6.7495308,41.470451 5.4425879,38.478532 5.1666097,35.535815 5.103659,31.127316 8.7153875,34.554698 9.7833822,35.358049 l 2.0474198,1.538924 c 1.932687,1.124694 3.534891,0.379972 4.715475,-2.667538 1.379879,-2.820632 2.815525,-5.604525 4.347021,-8.296651 -0.842576,-2.393177 -2.919846,-8.057466 -0.321427,-8.567952 0.272343,-0.0535 0.596524,-0.05202 0.979268,0.01447 1.715467,0.297014 3.378865,0.791796 4.967139,2.104781 1.891312,-1.577164 4.7364,-2.577963 7.620207,-2.694926 z m 2.142505,2.690792 a 1.554427,1.984375 0 0 0 -1.554428,1.984375 1.554427,1.984375 0 0 0 1.554428,1.984375 1.554427,1.984375 0 0 0 1.554427,-1.984375 1.554427,1.984375 0 0 0 -1.554427,-1.984375 z m 15.718937,5.520076 v 11.345044 h 9.999906 V 25.000024 Z m 17.321423,0 V 36.345068 H 90.000191 V 25.000024 Z M 51.999927,44.999837 v 11.345561 h 9.999906 V 44.999837 Z m 17.321423,0 V 56.345398 H 90.000191 V 44.999837 Z M 25.746749,60.80249 c 0.332243,0.0159 0.614942,0.218977 0.846977,0.610299 0.232509,0.392125 0.348816,0.873962 0.348816,1.444873 0,0.540865 -0.116307,0.999287 -0.348816,1.37511 -0.232035,0.365058 -0.514734,0.536919 -0.846977,0.515214 -0.320052,-0.02091 -0.594111,-0.22254 -0.823206,-0.604614 -0.223055,-0.380956 -0.334346,-0.854042 -0.334346,-1.419035 0,-0.564993 0.111291,-1.030167 0.334346,-1.395781 0.229095,-0.366067 0.503154,-0.54138 0.823206,-0.526066 z m -10.961605,0.45682 3.664893,0.192236 c 0.533093,0.02794 1.026795,0.169406 1.479496,0.426331 0.454568,0.257986 0.851788,0.635834 1.191142,1.133264 0.340395,0.489183 0.605799,1.097113 0.795817,1.824178 0.195788,0.718894 0.293522,1.554495 0.293522,2.50579 0,0.745343 -0.06242,1.426734 -0.187586,2.043286 -0.119589,0.606559 -0.2933,1.144066 -0.520898,1.611788 -0.221729,0.457523 -0.491733,0.840782 -0.809253,1.150318 -0.311251,0.309189 -0.66132,0.535488 -1.050582,0.679545 v 0.05839 c 0.207791,0.235116 0.389132,0.491644 0.544153,0.770496 0.15524,0.269516 0.302797,0.548677 0.44235,0.836641 0.139731,0.288331 0.276655,0.615862 0.411345,0.982369 0.140253,0.357824 0.294298,0.776384 0.461987,1.255737 l 2.090312,6.217192 -2.276864,-0.33538 -1.840714,-5.850289 c -0.164636,-0.533068 -0.326388,-0.987969 -0.485242,-1.364258 -0.153341,-0.384793 -0.311984,-0.701966 -0.475423,-0.95188 -0.157937,-0.248955 -0.331458,-0.43717 -0.520382,-0.56379 -0.188596,-0.126402 -0.400275,-0.202338 -0.635103,-0.227893 l -0.748275,-0.08113 v 8.345744 L 14.785144,81.64928 Z m 1.824695,2.863391 v 6.681763 l 1.548743,0.148828 c 0.2892,0.02778 0.555344,-0.02846 0.7984,-0.169499 0.248904,-0.140843 0.464157,-0.358322 0.644922,-0.65164 0.181062,-0.293802 0.322304,-0.65938 0.423747,-1.09709 0.101536,-0.438119 0.151929,-0.933869 0.151929,-1.487765 0,-1.000899 -0.173283,-1.795707 -0.519865,-2.3828 -0.345496,-0.585251 -0.840478,-0.898097 -1.483114,-0.939994 z m 35.986951,0.877466 v 11.345044 h 9.999906 V 65.000167 Z m 16.72456,0 V 76.345211 H 90.000191 V 65.000167 Z m -44.556453,2.883028 1.956469,0.155546 v 15.369088 l -1.956469,-0.288355 z m 8.08116,0.272852 c 2.344437,0.182799 3.534151,2.26813 3.534151,6.253365 V 84.830998 L 34.317802,84.52714 v -2.481502 l -0.03617,-0.0052 c -0.640194,1.809799 -1.573089,2.619571 -2.79156,2.438094 -0.889384,-0.132461 -1.582611,-0.651595 -2.083077,-1.55546 -0.492514,-0.899132 -0.73794,-2.028559 -0.73794,-3.391008 0,-2.926741 0.967552,-4.527137 2.92747,-4.804358 l 2.730583,-0.375687 c 0,-2.264883 -0.62861,-3.453154 -1.875338,-3.564641 -1.085931,-0.09711 -2.056279,0.456802 -2.914034,1.654163 V 69.35649 c 0.945641,-0.896797 2.046982,-1.298793 3.308325,-1.200443 z m 1.481047,8.570019 -1.937867,0.240295 c -0.594343,0.06403 -1.041254,0.262063 -1.342036,0.593763 -0.294129,0.321359 -0.4408,0.934897 -0.4408,1.840714 0,0.661553 0.135116,1.223631 0.40566,1.687752 0.277078,0.45581 0.646709,0.716264 1.109493,0.779798 0.631881,0.08675 1.155931,-0.222213 1.570963,-0.929142 0.422563,-0.719001 0.634587,-1.664266 0.634587,-2.832902 z" /></svg>
